<svg  version="1.1" xmlns="http://www.w3.org/2000/svg" xmlns:xlink="http://www.w3.org/1999/xlink">
<defs>
<symbol id="icon-message" viewBox="0 0 32 32">
<path  d="M28.8 0c1.76 0 3.184 1.44 3.184 3.2l0.016 28.8-6.4-6.4h-22.4c-1.76 0-3.2-1.44-3.2-3.2v-19.2c0-1.76 1.44-3.2 3.2-3.2h25.6zM6.4 19.2h19.2v-3.2h-19.2v3.2zM25.6 14.4v-3.2h-19.2v3.2h19.2zM6.4 9.6h19.2v-3.2h-19.2v3.2z"></path>
</symbol>
<symbol id="icon-heart" viewBox="0 0 34 32">
<path  d="M17.067 32l-2.475-2.302c-8.789-8.144-14.592-13.515-14.592-20.107 0-5.372 4.13-9.591 9.387-9.591 2.97 0 5.82 1.412 7.68 3.645 1.86-2.233 4.71-3.645 7.68-3.645 5.257 0 9.387 4.22 9.387 9.591 0 6.592-5.803 11.963-14.592 20.124l-2.475 2.284z"></path>
</symbol>
<symbol id="icon-arrow" viewBox="0 0 132 32">
<path  d="M99.082 12h-99.082v8h99.082v12l32.918-16-32.918-16v12z"></path>
</symbol>
</defs>
</svg>